<svg id="Layer_1" data-name="Layer 1" xmlns="http://www.w3.org/2000/svg" viewBox="0 0 1000 1000"><defs><style>.cls-1{fill:#ff735d;}.cls-2{fill:#61dafb;}</style></defs><title>icon</title><rect class="cls-1" y="800" width="50" height="200"/><rect class="cls-1" x="75" y="875" width="50" height="200" transform="translate(1075 875) rotate(90)"/><rect class="cls-2" x="875" y="875" width="50" height="200" transform="translate(-75 1875) rotate(-90)"/><rect class="cls-2" x="950" y="800" width="50" height="200"/><rect class="cls-2" x="75" y="-75" width="50" height="200" transform="translate(125 -75) rotate(90)"/><rect class="cls-2" width="50" height="200" transform="translate(50 200) rotate(180)"/><rect class="cls-2" x="950" y="200" width="50" height="200" transform="translate(1950 600) rotate(180)"/><rect class="cls-2" x="875" y="125" width="50" height="200" transform="translate(675 1125) rotate(-90)"/><rect class="cls-2" x="750" width="50" height="200" transform="translate(1550 200) rotate(180)"/><rect class="cls-2" x="675" y="-75" width="50" height="200" transform="translate(675 725) rotate(-90)"/></svg>