<svg id="Layer_1" data-name="Layer 1" xmlns="http://www.w3.org/2000/svg" viewBox="0 0 1280 640"><defs><style>.cls-1{fill:#ff735d;}.cls-2,.cls-3{fill:#61dafb;}.cls-3{font-size:120.14px;font-family:ArialRoundedMTBold, Arial Rounded MT Bold;}.cls-4{letter-spacing:-0.02em;}.cls-5{letter-spacing:0em;}.cls-6{letter-spacing:-0.02em;}.cls-7{letter-spacing:-0.01em;}</style></defs><title>logo</title><rect class="cls-1" x="27" y="468.8" width="24.8" height="99.2"/><rect class="cls-1" x="64.2" y="506" width="24.8" height="99.2" transform="translate(632.2 479) rotate(90)"/><rect class="cls-2" x="461" y="506" width="24.8" height="99.2" transform="translate(-82.2 1029) rotate(-90)"/><rect class="cls-2" x="498.2" y="468.8" width="24.8" height="99.2"/><rect class="cls-2" x="64.2" y="34.8" width="24.8" height="99.2" transform="translate(161 7.8) rotate(90)"/><rect class="cls-2" x="27" y="72" width="24.8" height="99.2" transform="translate(78.8 243.2) rotate(180)"/><rect class="cls-2" x="498.2" y="171.2" width="24.8" height="99.2" transform="translate(1021.2 441.6) rotate(180)"/><rect class="cls-2" x="461" y="134" width="24.8" height="99.2" transform="translate(289.8 657) rotate(-90)"/><rect class="cls-2" x="399" y="72" width="24.8" height="99.2" transform="translate(822.8 243.2) rotate(180)"/><rect class="cls-2" x="361.8" y="34.8" width="24.8" height="99.2" transform="translate(289.8 458.6) rotate(-90)"/><text class="cls-3" transform="translate(597 148.8) scale(0.99 1)"><tspan class="cls-4">r<tspan class="cls-5" x="49.63" y="0">eact</tspan></tspan><tspan x="0" y="139.32">n</tspan><tspan class="cls-6" x="72.56" y="139.32">a</tspan><tspan x="140.96" y="139.32">ti</tspan><tspan class="cls-7" x="216.05" y="139.32">v</tspan><tspan x="279.58" y="139.32">e</tspan><tspan class="cls-1"><tspan x="0" y="278.64">use</tspan><tspan x="0" y="417.96">dimensions</tspan></tspan></text></svg>